<svg xmlns="http://www.w3.org/2000/svg" viewBox="0 0 64 64" width="64" height="64">
  <circle cx="32" cy="32" r="30" fill="#fafafa" stroke="#18181b" stroke-width="2.5"/>
  <g fill="#18181b">
    <polygon points="32,15 38,19 36,26 28,26 26,19"/>
    <polygon points="44,28 49,33 46,40 39,38 39,32"/>
    <polygon points="20,28 25,32 25,38 18,40 15,33"/>
    <polygon points="28,42 36,42 39,49 32,53 25,49"/>
  </g>
  <g stroke="#18181b" stroke-width="1.4" fill="none" stroke-linecap="round">
    <line x1="32" y1="15" x2="32" y2="6"/>
    <line x1="44" y1="28" x2="51" y2="22"/>
    <line x1="20" y1="28" x2="13" y2="22"/>
    <line x1="28" y1="42" x2="22" y2="51"/>
    <line x1="36" y1="42" x2="42" y2="51"/>
  </g>
</svg>
